<svg width="25" height="25" viewBox="0 0 25 25" fill="none" xmlns="http://www.w3.org/2000/svg">
<path d="M12.87 2.4643L21.87 6.06427C22.22 6.20427 22.5 6.62427 22.5 6.99427V10.3143C22.5 10.8643 22.05 11.3143 21.5 11.3143H3.5C2.95 11.3143 2.5 10.8643 2.5 10.3143V6.99427C2.5 6.62427 2.78 6.20427 3.13 6.06427L12.13 2.4643C12.33 2.3843 12.67 2.3843 12.87 2.4643Z" stroke="#A58F6E" stroke-width="1.5" stroke-miterlimit="10" stroke-linecap="round" stroke-linejoin="round"/>
<path d="M22.5 22.3145H2.5V19.3145C2.5 18.7645 2.95 18.3145 3.5 18.3145H21.5C22.05 18.3145 22.5 18.7645 22.5 19.3145V22.3145Z" stroke="#A58F6E" stroke-width="1.5" stroke-miterlimit="10" stroke-linecap="round" stroke-linejoin="round"/>
<path d="M4.5 18.3145V11.3145" stroke="#A58F6E" stroke-width="1.5" stroke-miterlimit="10" stroke-linecap="round" stroke-linejoin="round"/>
<path d="M8.5 18.3145V11.3145" stroke="#A58F6E" stroke-width="1.5" stroke-miterlimit="10" stroke-linecap="round" stroke-linejoin="round"/>
<path d="M12.5 18.3145V11.3145" stroke="#A58F6E" stroke-width="1.5" stroke-miterlimit="10" stroke-linecap="round" stroke-linejoin="round"/>
<path d="M16.5 18.3145V11.3145" stroke="#A58F6E" stroke-width="1.5" stroke-miterlimit="10" stroke-linecap="round" stroke-linejoin="round"/>
<path d="M20.5 18.3145V11.3145" stroke="#A58F6E" stroke-width="1.5" stroke-miterlimit="10" stroke-linecap="round" stroke-linejoin="round"/>
<path d="M1.5 22.3145H23.5" stroke="#A58F6E" stroke-width="1.5" stroke-miterlimit="10" stroke-linecap="round" stroke-linejoin="round"/>
<path d="M12.5 8.81445C13.3284 8.81445 14 8.14288 14 7.31445C14 6.48603 13.3284 5.81445 12.5 5.81445C11.6716 5.81445 11 6.48603 11 7.31445C11 8.14288 11.6716 8.81445 12.5 8.81445Z" stroke="#A58F6E" stroke-width="1.5" stroke-miterlimit="10" stroke-linecap="round" stroke-linejoin="round"/>
</svg>
