<svg width="25" height="25" viewBox="0 0 25 25" fill="none" xmlns="http://www.w3.org/2000/svg">
<path d="M11 20.2086V4.40859C11 2.90859 10.36 2.30859 8.77 2.30859H4.73C3.14 2.30859 2.5 2.90859 2.5 4.40859V20.2086C2.5 21.7086 3.14 22.3086 4.73 22.3086H8.77C10.36 22.3086 11 21.7086 11 20.2086Z" stroke="#7E6541" stroke-width="1.8" stroke-linecap="round" stroke-linejoin="round"/>
<path d="M22.5 11.2086V4.40859C22.5 2.90859 21.86 2.30859 20.27 2.30859H16.23C14.64 2.30859 14 2.90859 14 4.40859V11.2086C14 12.7086 14.64 13.3086 16.23 13.3086H20.27C21.86 13.3086 22.5 12.7086 22.5 11.2086Z" stroke="#7E6541" stroke-width="1.8" stroke-linecap="round" stroke-linejoin="round"/>
<path d="M22.5 20.2086V18.4086C22.5 16.9086 21.86 16.3086 20.27 16.3086H16.23C14.64 16.3086 14 16.9086 14 18.4086V20.2086C14 21.7086 14.64 22.3086 16.23 22.3086H20.27C21.86 22.3086 22.5 21.7086 22.5 20.2086Z" stroke="#7E6541" stroke-width="1.8" stroke-linecap="round" stroke-linejoin="round"/>
</svg>
