<svg width="25" height="25" viewBox="0 0 25 25" fill="none" xmlns="http://www.w3.org/2000/svg">
<path d="M22.5 15.3115V9.31152C22.5 4.31152 20.5 2.31152 15.5 2.31152H9.5C4.5 2.31152 2.5 4.31152 2.5 9.31152V15.3115C2.5 20.3115 4.5 22.3115 9.5 22.3115H15.5C20.5 22.3115 22.5 20.3115 22.5 15.3115Z" stroke="#A58F6E" stroke-width="1.8" stroke-linecap="round" stroke-linejoin="round"/>
<path d="M3.01953 7.42188H21.9795" stroke="#A58F6E" stroke-width="1.8" stroke-linecap="round" stroke-linejoin="round"/>
<path d="M9.01953 2.42188V7.28187" stroke="#A58F6E" stroke-width="1.8" stroke-linecap="round" stroke-linejoin="round"/>
<path d="M15.9805 2.42188V6.83187" stroke="#A58F6E" stroke-width="1.8" stroke-linecap="round" stroke-linejoin="round"/>
<path d="M10.25 14.7616V13.5616C10.25 12.0216 11.34 11.3916 12.67 12.1616L13.71 12.7616L14.75 13.3616C16.08 14.1316 16.08 15.3916 14.75 16.1616L13.71 16.7616L12.67 17.3616C11.34 18.1316 10.25 17.5016 10.25 15.9616V14.7616V14.7616Z" stroke="#A58F6E" stroke-width="1.8" stroke-miterlimit="10" stroke-linecap="round" stroke-linejoin="round"/>
</svg>
