<svg width="49" height="48" viewBox="0 0 49 48" fill="none" xmlns="http://www.w3.org/2000/svg">
<path d="M24.5 48C21.2599 48 18.1168 47.3655 15.158 46.114C12.3001 44.9053 9.73341 43.1748 7.52929 40.9707C5.3252 38.7666 3.59473 36.1999 2.38599 33.342C1.13453 30.3832 0.5 27.2401 0.5 24C0.5 20.7599 1.13453 17.6168 2.38599 14.658C3.59473 11.8001 5.3252 9.23341 7.52929 7.02929C9.73341 4.8252 12.3001 3.09473 15.158 1.88599C18.1168 0.634533 21.2599 0 24.5 0C27.7401 0 30.8832 0.634533 33.842 1.88599C36.6999 3.09473 39.2666 4.8252 41.4707 7.02929C43.6748 9.23341 45.4053 11.8001 46.614 14.658C47.8655 17.6168 48.5 20.7599 48.5 24C48.5 27.2401 47.8655 30.3832 46.614 33.342C45.4053 36.1999 43.6748 38.7666 41.4707 40.9707C39.2666 43.1748 36.6999 44.9053 33.842 46.114C30.8832 47.3655 27.7401 48 24.5 48ZM17.942 13.5612V34.4388L36.0224 24L17.942 13.5612Z" fill="white"/>
</svg>
